<?xml version="1.0" encoding="iso-8859-1"?>
<!-- Uploaded to: SVG Repo, www.svgrepo.com, Generator: SVG Repo Mixer Tools -->
<svg fill="#000000" height="800px" width="800px" version="1.1" id="Capa_1" xmlns="http://www.w3.org/2000/svg" xmlns:xlink="http://www.w3.org/1999/xlink" 
	 viewBox="0 0 612 612" xml:space="preserve">
<g>
	<g>
		<g>
			<path d="M575.28,110.16H36.72C16.438,110.16,0,126.604,0,146.88v318.24c0,20.276,16.438,36.72,36.72,36.72h538.56
				c20.276,0,36.72-16.444,36.72-36.72V146.88C612,126.604,595.556,110.16,575.28,110.16z M514.08,465.12H48.96V146.88h465.12
				V465.12z M563.04,329.531c-13.519,0-24.48-10.973-24.48-24.486c0-13.525,10.961-24.48,24.48-24.48
				c13.519,0,24.48,10.955,24.48,24.48C587.52,318.558,576.559,329.531,563.04,329.531z"/>
			<path d="M575.28,110.16H36.72C16.438,110.16,0,126.604,0,146.88v318.24c0,20.276,16.438,36.72,36.72,36.72h538.56
				c20.276,0,36.72-16.444,36.72-36.72V146.88C612,126.604,595.556,110.16,575.28,110.16z M514.08,465.12H48.96V146.88h465.12
				V465.12z M563.04,329.531c-13.519,0-24.48-10.973-24.48-24.486c0-13.525,10.961-24.48,24.48-24.48
				c13.519,0,24.48,10.955,24.48,24.48C587.52,318.558,576.559,329.531,563.04,329.531z"/>
		</g>
		<g>
			<path d="M146.488,281.428h270.057c9.088,0,16.53-7.436,16.53-16.53v-2.76c0-9.088-7.442-16.53-16.53-16.53h-46.647l-33.323-53.14
				c-3.501-4.976-10.373-6.181-15.361-2.674c-4.976,3.501-6.169,10.38-2.668,15.361l24.388,40.447H221.409l24.388-40.447
				c3.501-4.976,2.313-11.861-2.668-15.361c-4.982-3.507-11.861-2.307-15.355,2.674l-33.323,53.14h-47.962
				c-9.088,0-16.53,7.442-16.53,16.53v2.76C129.958,273.999,137.4,281.428,146.488,281.428z"/>
			<path d="M146.488,281.428h270.057c9.088,0,16.53-7.436,16.53-16.53v-2.76c0-9.088-7.442-16.53-16.53-16.53h-46.647l-33.323-53.14
				c-3.501-4.976-10.373-6.181-15.361-2.674c-4.976,3.501-6.169,10.38-2.668,15.361l24.388,40.447H221.409l24.388-40.447
				c3.501-4.976,2.313-11.861-2.668-15.361c-4.982-3.507-11.861-2.307-15.355,2.674l-33.323,53.14h-47.962
				c-9.088,0-16.53,7.442-16.53,16.53v2.76C129.958,273.999,137.4,281.428,146.488,281.428z"/>
		</g>
		<g>
			<path d="M179.946,414.275c2.007,9.37,7.834,17.411,17.411,17.411h168.324c9.572,0,14.719-8.152,17.411-17.411l25.239-116.09
				H154.714L179.946,414.275z M322.285,402.647l11.604-73.03c0.753-4.749,5.239-8.005,9.963-7.24
				c4.749,0.759,7.993,5.226,7.234,9.969l-11.604,73.036c-0.679,4.284-4.382,7.338-8.586,7.338c-0.453,0-0.912-0.037-1.377-0.11
				C324.764,411.864,321.533,407.396,322.285,402.647z M269.935,330.982c0-4.81,3.898-8.709,8.709-8.709s8.709,3.898,8.709,8.709
				v73.036c0,4.81-3.898,8.709-8.709,8.709s-8.709-3.898-8.709-8.709V330.982z M213.435,322.383c4.712-0.765,9.211,2.485,9.963,7.24
				l11.61,73.024c0.753,4.749-2.485,9.217-7.234,9.969c-0.465,0.073-0.924,0.11-1.383,0.11c-4.211,0-7.907-3.054-8.586-7.338
				l-11.604-73.036C205.448,327.604,208.686,323.142,213.435,322.383z"/>
			<path d="M179.946,414.275c2.007,9.37,7.834,17.411,17.411,17.411h168.324c9.572,0,14.719-8.152,17.411-17.411l25.239-116.09
				H154.714L179.946,414.275z M322.285,402.647l11.604-73.03c0.753-4.749,5.239-8.005,9.963-7.24
				c4.749,0.759,7.993,5.226,7.234,9.969l-11.604,73.036c-0.679,4.284-4.382,7.338-8.586,7.338c-0.453,0-0.912-0.037-1.377-0.11
				C324.764,411.864,321.533,407.396,322.285,402.647z M269.935,330.982c0-4.81,3.898-8.709,8.709-8.709s8.709,3.898,8.709,8.709
				v73.036c0,4.81-3.898,8.709-8.709,8.709s-8.709-3.898-8.709-8.709V330.982z M213.435,322.383c4.712-0.765,9.211,2.485,9.963,7.24
				l11.61,73.024c0.753,4.749-2.485,9.217-7.234,9.969c-0.465,0.073-0.924,0.11-1.383,0.11c-4.211,0-7.907-3.054-8.586-7.338
				l-11.604-73.036C205.448,327.604,208.686,323.142,213.435,322.383z"/>
		</g>
	</g>
</g>
</svg>